<svg xmlns="http://www.w3.org/2000/svg" xmlns:xlink="http://www.w3.org/1999/xlink" width="500" zoomAndPan="magnify" viewBox="0 0 375 374.999991" height="500" preserveAspectRatio="xMidYMid meet" version="1.0"><defs><g/><clipPath id="593aaa9a57"><path d="M 154.414062 109.800781 L 315.664062 109.800781 L 315.664062 240 L 154.414062 240 Z M 154.414062 109.800781 " clip-rule="nonzero"/></clipPath><clipPath id="fa657cbb93"><path d="M 59.335938 135 L 220.550781 135 L 220.550781 265.195312 L 59.335938 265.195312 Z M 59.335938 135 " clip-rule="nonzero"/></clipPath><clipPath id="c66e370b34"><path d="M 197.605469 109.800781 L 220.855469 109.800781 L 220.855469 133.050781 L 197.605469 133.050781 Z M 197.605469 109.800781 " clip-rule="nonzero"/></clipPath></defs><g clip-path="url(#593aaa9a57)"><path fill="#000000" d="M 207.484375 239.820312 C 188.402344 239.820312 170.488281 237.570312 154.917969 233.613281 C 165.632812 235.242188 177.089844 236.117188 189 236.117188 C 248.703125 236.117188 297.097656 214.082031 297.097656 186.890625 C 297.097656 168.398438 274.695312 152.289062 241.566406 143.867188 C 284.566406 150.371094 315.582031 168.828125 315.582031 190.601562 C 315.582031 217.78125 267.183594 239.820312 207.484375 239.820312 Z M 209.488281 135.699219 L 209.488281 135.300781 C 233.320312 135.300781 235.050781 131.433594 235.050781 109.730469 L 235.449219 109.730469 C 235.449219 131.433594 237.1875 135.300781 261.023438 135.300781 L 261.023438 135.699219 C 237.1875 135.699219 235.449219 139.554688 235.449219 161.261719 L 235.050781 161.261719 C 235.050781 139.554688 233.320312 135.699219 209.488281 135.699219 " fill-opacity="1" fill-rule="evenodd"/></g><g clip-path="url(#fa657cbb93)"><path fill="#000000" d="M 167.515625 135.175781 C 186.597656 135.175781 204.511719 137.421875 220.082031 141.378906 C 209.367188 139.75 197.910156 138.875 185.996094 138.875 C 126.296875 138.875 77.902344 160.914062 77.902344 188.105469 C 77.902344 206.597656 100.304688 222.707031 133.433594 231.128906 C 90.433594 224.625 59.417969 206.164062 59.417969 184.390625 C 59.417969 157.210938 107.816406 135.175781 167.515625 135.175781 Z M 165.511719 239.292969 L 165.511719 239.691406 C 141.675781 239.691406 139.949219 243.558594 139.949219 265.265625 L 139.550781 265.265625 C 139.550781 243.558594 137.8125 239.691406 113.976562 239.691406 L 113.976562 239.292969 C 137.8125 239.292969 139.550781 235.4375 139.550781 213.730469 L 139.949219 213.730469 C 139.949219 235.4375 141.675781 239.292969 165.511719 239.292969 " fill-opacity="1" fill-rule="evenodd"/></g><g clip-path="url(#c66e370b34)"><path fill="#000000" d="M 220.855469 121.421875 C 212.136719 123.027344 210.835938 124.328125 209.230469 133.046875 C 207.625 124.328125 206.324219 123.027344 197.605469 121.421875 C 206.324219 119.820312 207.625 118.519531 209.230469 109.800781 C 210.835938 118.519531 212.136719 119.820312 220.855469 121.421875 Z M 220.855469 121.421875 " fill-opacity="1" fill-rule="nonzero"/></g><path stroke-linecap="butt" transform="matrix(0.731065, 0, 0, 0.731065, 61.044284, 144.367123)" fill="none" stroke-linejoin="miter" d="M 43.823366 17.931965 C 45.955315 17.931965 49.749007 3.473187 52.490084 3.473187 C 53.719027 3.473187 53.799175 4.878456 53.799175 6.203577 L 53.799175 38.968258 C 53.799175 41.394084 53.467895 42.842099 52.308414 44.001579 L 66.601552 44.001579 C 65.452758 42.842099 65.110791 41.394084 65.110791 38.968258 L 65.110791 6.203577 C 65.110791 4.878456 65.196283 3.473187 66.435912 3.473187 C 69.160959 3.473187 72.965338 17.931965 75.0866 17.931965 C 75.690385 17.931965 76.037695 17.46176 76.037695 16.911408 L 76.037695 1.341238 L 42.882958 1.341238 L 42.882958 16.911408 C 42.882958 17.46176 43.230268 17.931965 43.823366 17.931965 Z M 77.309383 44.001579 L 91.597178 44.001579 C 90.453727 42.842099 90.106417 41.394084 90.106417 38.968258 L 90.106417 6.369217 C 90.106417 3.943391 90.453727 2.495376 91.597178 1.341238 L 77.309383 1.341238 C 78.463521 2.495376 78.800144 3.943391 78.800144 6.369217 L 78.800144 38.968258 C 78.800144 41.394084 78.463521 42.842099 77.309383 44.001579 Z M 92.452094 1.341238 C 93.606232 2.495376 93.942855 3.943391 93.942855 6.369217 L 93.942855 38.968258 C 93.942855 41.394084 93.606232 42.842099 92.452094 44.001579 L 104.607941 44.001579 C 106.697143 44.001579 107.637551 41.394084 107.637551 39.689593 C 107.637551 31.461021 96.293876 29.200835 96.293876 23.734711 C 96.293876 23.056121 96.667902 22.671409 97.271687 22.671409 C 98.98152 22.671409 102.775213 27.619239 110.28245 27.619239 C 120.135364 27.619239 123.977146 20.282985 123.977146 13.673411 C 123.977146 6.753929 120.007127 1.341238 109.646606 1.341238 Z M 107.167347 10.253744 C 113.050242 10.253744 121.759706 10.638457 121.759706 14.485582 C 121.759706 18.316677 114.802822 18.70139 108.919926 18.70139 C 103.031688 18.70139 96.117549 18.316677 96.117549 14.485582 C 96.117549 10.638457 102.812616 10.253744 107.167347 10.253744 Z M 125.890022 22.671409 C 125.890022 35.853155 132.585088 44.637424 142.699821 44.637424 C 152.729062 44.637424 159.466874 35.853155 159.466874 22.671409 C 159.466874 9.484319 152.729062 0.705394 142.699821 0.705394 C 132.585088 0.705394 125.890022 9.484319 125.890022 22.671409 Z M 139.242752 3.601424 C 148.251436 3.601424 154.812921 41.741393 145.301973 41.741393 C 137.709245 41.741393 131.26531 3.601424 139.242752 3.601424 Z M 160.957635 1.341238 C 162.111772 2.495376 162.448395 3.943391 162.448395 6.369217 L 162.448395 38.968258 C 162.448395 41.394084 162.111772 42.842099 160.957635 44.001579 L 179.087211 44.001579 C 187.454708 44.001579 192.402538 40.720837 192.402538 28.046697 C 192.402538 17.29612 187.069995 1.341238 174.048546 1.341238 Z M 176.955262 3.767064 C 180.882536 3.767064 181.224503 14.522984 181.224503 22.751557 C 181.224503 35.292116 179.942128 41.821542 176.693444 41.821542 C 174.310364 41.821542 173.540939 38.711783 173.540939 31.199202 C 173.540939 30.520612 173.540939 23.355342 173.540939 22.671409 C 173.540939 21.982132 173.540939 14.816862 173.540939 14.138272 C 173.540939 6.631035 174.310364 3.767064 176.955262 3.767064 Z M 207.075045 44.637424 C 218.969073 44.637424 223.964992 36.024138 223.964992 28.43141 C 223.964992 21.859238 219.102654 17.13048 211.937383 16.441204 C 205.488106 15.848105 197.430516 14.993189 197.430516 10.381982 C 197.430516 8.768327 198.707548 7.40046 200.283801 7.40046 C 206.001056 7.40046 209.928329 12.51393 216.195937 12.51393 C 221.405585 12.51393 225.290113 0.705394 222.297905 0.705394 C 220.978127 0.705394 220.12321 2.404541 217.173748 2.404541 C 213.299907 2.404541 210.697754 0.705394 207.363579 0.705394 C 200.198309 0.705394 194.187176 6.508141 194.187176 13.673411 C 194.187176 22.671409 201.437938 25.230816 209.885583 27.838311 C 214.101391 29.158089 217.90577 31.199202 217.90577 35.553934 C 217.90577 38.834677 214.956308 41.313935 211.675565 41.313935 C 205.023245 41.313935 205.79267 35.126476 206.385768 30.64885 C 206.604841 29.024508 205.488106 28.169592 204.211074 28.126846 C 201.988291 28.046697 193.887955 32.273192 193.887955 34.821912 C 193.887955 39.946068 199.947177 44.637424 207.075045 44.637424 Z M 240.384735 1.341238 C 241.538873 2.495376 241.870153 3.943391 241.870153 6.369217 L 241.870153 38.968258 C 241.870153 41.394084 241.538873 42.842099 240.384735 44.001579 L 258.514311 44.001579 C 266.876465 44.001579 271.824295 40.720837 271.824295 28.046697 C 271.824295 17.29612 266.491752 1.341238 253.475646 1.341238 Z M 256.382363 3.767064 C 260.304293 3.767064 260.651603 14.522984 260.651603 22.751557 C 260.651603 35.292116 259.369228 41.821542 256.120545 41.821542 C 253.737465 41.821542 252.962696 38.711783 252.962696 31.199202 C 252.962696 30.520612 252.962696 23.355342 252.962696 22.671409 C 252.962696 21.982132 252.962696 14.816862 252.962696 14.138272 C 252.962696 6.631035 253.737465 3.767064 256.382363 3.767064 Z M 273.9509 22.671409 C 273.9509 37.386662 281.677209 44.637424 291.22556 44.637424 C 300.319736 44.637424 305.433206 36.451597 305.433206 30.64885 C 305.433206 28.687885 304.882853 28.345918 304.369903 28.345918 C 302.275358 28.345918 302.066972 34.656272 294.602481 34.656272 C 288.67684 34.656272 282.82066 29.158089 280.27194 21.303542 C 280.010122 20.453969 279.801736 18.920462 281.164259 18.920462 C 284.70682 18.920462 287.602851 26.636085 293.913204 26.636085 C 299.165598 26.636085 301.217398 22.324099 301.217398 19.470815 C 301.217398 18.108291 300.832686 17.034302 300.143409 17.034302 C 299.422073 17.034302 298.994615 18.70139 297.028307 18.70139 C 293.704818 18.70139 289.948528 15.201575 285.727377 15.201575 C 281.928341 15.201575 280.945187 17.419015 279.668155 17.419015 C 278.519361 17.419015 278.855984 13.368847 278.855984 12.556676 C 278.855984 10.985767 279.502515 7.40046 282.3558 7.40046 C 287.907415 7.40046 290.675207 12.51393 298.267936 12.51393 C 301.340293 12.51393 303.392092 8.891221 304.247009 6.882167 C 305.433206 4.109031 306.036991 0.705394 304.369903 0.705394 C 303.050126 0.705394 302.195209 2.404541 299.245747 2.404541 C 295.371906 2.404541 292.769753 0.705394 289.435578 0.705394 C 278.946819 0.705394 273.9509 12.086472 273.9509 22.671409 Z M 273.9509 22.671409 " stroke="#000000" stroke-width="10.080008" stroke-opacity="1" stroke-miterlimit="4"/><path stroke-linecap="butt" transform="matrix(0.731065, 0, 0, 0.731065, 61.044284, 144.367123)" fill="none" stroke-linejoin="miter" d="M 0.441689 103.001515 L 14.729484 103.001515 C 13.586033 101.842034 13.244066 100.394019 13.244066 97.968193 L 13.244066 65.369153 C 13.244066 62.943327 13.586033 61.495311 14.729484 60.341174 L 0.441689 60.341174 C 1.60117 61.495311 1.93245 62.943327 1.93245 65.369153 L 1.93245 97.968193 C 1.93245 100.394019 1.60117 101.842034 0.441689 103.001515 Z M 15.584401 103.001515 L 24.50225 103.001515 C 27.018911 103.001515 29.241694 101.842034 29.241694 99.250568 C 29.241694 93.105855 19.55442 86.795501 19.55442 73.138208 C 19.55442 71.171899 19.72006 68.484255 21.125329 68.484255 C 22.669522 68.484255 24.197686 73.565666 25.779282 78.251678 C 26.71969 81.078246 29.364588 88.489305 30.470637 91.866226 C 32.351453 97.626227 34.007855 103.001515 38.966371 103.001515 L 50.144406 103.001515 C 48.984926 101.842034 48.642959 100.394019 48.642959 97.968193 L 48.642959 65.369153 C 48.642959 62.943327 48.984926 61.495311 50.144406 60.341174 L 41.226557 60.341174 C 38.704553 60.341174 36.487113 61.495311 36.487113 64.086778 C 36.487113 70.236834 46.174387 76.547188 46.174387 90.199138 C 46.174387 92.17079 45.998061 94.853091 44.592791 94.853091 C 43.059285 94.853091 41.520435 89.77168 39.944182 85.085668 L 35.93676 73.138208 C 32.094979 61.703697 31.282808 60.341174 28.301286 60.341174 L 15.584401 60.341174 C 16.743881 61.495311 17.075162 62.943327 17.075162 65.369153 L 17.075162 97.968193 C 17.075162 100.394019 16.743881 101.842034 15.584401 103.001515 Z M 50.988637 60.341174 C 52.436652 61.495311 52.783962 62.943327 52.783962 65.369153 L 52.783962 97.968193 C 52.783962 100.394019 52.436652 101.842034 51.293201 103.001515 L 63.449047 103.001515 C 65.538249 103.001515 66.478658 100.394019 66.478658 98.689529 C 66.478658 90.460956 55.124296 90.375465 55.124296 78.9837 C 55.124296 78.171529 55.685335 77.920398 56.064704 77.920398 C 59.601922 77.920398 62.508639 85.63602 68.818992 85.63602 C 74.071386 85.63602 76.1125 81.324035 76.1125 78.47075 C 76.1125 77.108227 75.738474 76.034238 75.049197 76.034238 C 74.322518 76.034238 73.905746 77.701325 71.934095 77.701325 C 68.610606 77.701325 64.854316 74.20151 60.633165 74.20151 C 57.603554 74.20151 56.705892 75.783106 55.685335 75.783106 C 55.209788 75.783106 55.124296 75.398394 55.124296 75.099173 L 55.124296 72.454274 C 55.124296 70.840619 56.278433 68.954459 58.32489 68.954459 L 73.093575 68.954459 C 78.078808 68.954459 78.463521 72.245888 79.831387 72.245888 C 80.643558 72.245888 80.809198 71.599358 80.809198 70.536055 L 80.809198 60.341174 Z M 104.82167 103.001515 C 108.241336 103.001515 112.49989 103.386228 112.49989 99.5017 C 112.49989 93.020363 102.866048 93.105855 102.866048 89.306819 C 102.866048 84.743701 112.206012 86.576429 112.206012 81.671344 C 112.206012 79.14934 105.206382 76.974646 102.481335 76.974646 C 99.237995 76.974646 96.635843 79.961511 96.635843 83.156762 C 96.635843 90.503702 103.843859 91.176949 103.843859 96.856802 C 103.843859 99.544446 100.937142 100.864223 98.249498 100.864223 C 90.961333 100.864223 87.253132 91.908971 87.253132 87.260362 C 87.253132 77.359359 99.617365 70.413161 99.617365 64.14021 C 99.617365 62.43572 98.63421 60.341174 95.177141 60.341174 L 82.08623 60.341174 C 83.240367 61.495311 83.576991 62.943327 83.576991 65.369153 L 83.576991 97.968193 C 83.576991 100.394019 83.240367 101.842034 82.08623 103.001515 Z M 115.144788 65.369153 L 115.144788 87.260362 C 115.144788 100.394019 124.228278 103.637359 130.45314 103.637359 C 136.683345 103.637359 145.900415 100.394019 145.900415 87.260362 L 145.900415 65.369153 C 145.900415 62.943327 146.242382 61.495311 147.690397 60.341174 L 133.01789 60.341174 C 134.465905 61.495311 134.807871 62.943327 134.807871 65.369153 L 134.807871 86.314611 C 134.807871 91.524259 131.308056 94.292052 127.092249 94.292052 C 122.737517 94.292052 117.239334 92.293684 117.239334 86.87565 C 117.239334 78.513496 128.796739 73.52292 128.796739 64.049375 C 128.796739 62.43572 127.818928 60.341174 126.071692 60.341174 L 113.354807 60.341174 C 114.802822 61.495311 115.144788 62.943327 115.144788 65.369153 Z M 149.181158 81.671344 C 149.181158 96.386597 156.907467 103.637359 166.461161 103.637359 C 175.549993 103.637359 180.663463 95.451532 180.663463 89.648786 C 180.663463 87.68782 180.113111 87.345854 179.600161 87.345854 C 177.510958 87.345854 177.302572 93.656207 169.832738 93.656207 C 163.907097 93.656207 158.056261 88.158025 155.502198 80.303478 C 155.240379 79.453904 155.031993 77.920398 156.39986 77.920398 C 159.937078 77.920398 162.833108 85.63602 169.143462 85.63602 C 174.395856 85.63602 176.447656 81.324035 176.447656 78.47075 C 176.447656 77.108227 176.062943 76.034238 175.373667 76.034238 C 174.657674 76.034238 174.230216 77.701325 172.258564 77.701325 C 168.935076 77.701325 165.178786 74.20151 160.957635 74.20151 C 157.158599 74.20151 156.180788 76.41895 154.898413 76.41895 C 153.754962 76.41895 154.086242 72.368783 154.086242 71.556612 C 154.086242 69.985702 154.732773 66.400396 157.586057 66.400396 C 163.137672 66.400396 165.905465 71.513866 173.498193 71.513866 C 176.57055 71.513866 178.62235 67.891157 179.477267 65.882103 C 180.663463 63.108967 181.267248 59.70533 179.600161 59.70533 C 178.280383 59.70533 177.425467 61.404477 174.476004 61.404477 C 170.602163 61.404477 168.00001 59.70533 164.665836 59.70533 C 154.177077 59.70533 149.181158 71.086408 149.181158 81.671344 Z M 181.945838 103.001515 L 190.858345 103.001515 C 193.380349 103.001515 195.597789 101.842034 195.597789 99.250568 C 195.597789 93.105855 185.910514 86.795501 185.910514 73.138208 C 185.910514 71.171899 186.081498 68.484255 187.486767 68.484255 C 189.025617 68.484255 190.559124 73.565666 192.14072 78.251678 C 193.075785 81.078246 195.726026 88.489305 196.826731 91.866226 C 198.712891 97.626227 200.369292 103.001515 205.327809 103.001515 L 216.500501 103.001515 C 215.346363 101.842034 215.004397 100.394019 215.004397 97.968193 L 215.004397 65.369153 C 215.004397 62.943327 215.346363 61.495311 216.500501 60.341174 L 207.587995 60.341174 C 205.065991 60.341174 202.848551 61.495311 202.848551 64.086778 C 202.848551 70.236834 212.535825 76.547188 212.535825 90.199138 C 212.535825 92.17079 212.354155 94.853091 210.948886 94.853091 C 209.420722 94.853091 207.876529 89.77168 206.30562 85.085668 L 202.298198 73.138208 C 198.451073 61.703697 197.638902 60.341174 194.662724 60.341174 L 181.945838 60.341174 C 183.099976 61.495311 183.436599 62.943327 183.436599 65.369153 L 183.436599 97.968193 C 183.436599 100.394019 183.099976 101.842034 181.945838 103.001515 Z M 235.260578 103.637359 C 244.354754 103.637359 249.468224 95.146968 249.468224 89.648786 C 249.468224 87.68782 248.917872 87.345854 248.404922 87.345854 C 246.315719 87.345854 246.107333 93.656207 238.637499 93.656207 C 228.442618 93.656207 222.891003 80.346224 222.891003 71.556612 C 222.891003 69.985702 223.537534 66.400396 226.390818 66.400396 C 231.295902 66.400396 234.026292 70.413161 239.877128 71.348226 C 240.635867 71.47112 241.063325 71.775684 241.063325 72.368783 C 241.063325 74.121362 232.230967 75.868598 232.230967 82.264443 C 232.230967 85.678766 235.137684 88.409156 238.594753 88.409156 C 242.18006 88.409156 245.375311 85.47038 245.375311 82.264443 C 245.375311 81.409526 245.113493 79.918765 244.440246 79.918765 C 243.970042 79.918765 244.055533 80.346224 243.157871 80.346224 C 241.66711 80.346224 240.678613 79.106595 240.678613 77.701325 C 240.635867 74.586223 244.56314 71.513866 246.395868 69.130786 C 247.250784 68.014051 247.897315 66.785108 248.282028 65.882103 C 249.468224 63.108967 250.072009 59.70533 248.404922 59.70533 C 247.085144 59.70533 246.230228 61.404477 243.280765 61.404477 C 239.406924 61.404477 236.804772 59.70533 233.470597 59.70533 C 222.981838 59.70533 217.985919 71.086408 217.985919 81.671344 C 217.985919 96.386597 225.712228 103.637359 235.260578 103.637359 Z M 251.386444 81.671344 C 251.386444 96.386597 259.112753 103.637359 268.661103 103.637359 C 277.755279 103.637359 282.86875 95.451532 282.86875 89.648786 C 282.86875 87.68782 282.318397 87.345854 281.805447 87.345854 C 279.710901 87.345854 279.502515 93.656207 272.038024 93.656207 C 266.112383 93.656207 260.256204 88.158025 257.707484 80.303478 C 257.445666 79.453904 257.23728 77.920398 258.599803 77.920398 C 262.142364 77.920398 265.038394 85.63602 271.348748 85.63602 C 276.601142 85.63602 278.652942 81.324035 278.652942 78.47075 C 278.652942 77.108227 278.268229 76.034238 277.578953 76.034238 C 276.857617 76.034238 276.430158 77.701325 274.46385 77.701325 C 271.140362 77.701325 267.384072 74.20151 263.162921 74.20151 C 259.363885 74.20151 258.380731 76.41895 257.103699 76.41895 C 255.954905 76.41895 256.291528 72.368783 256.291528 71.556612 C 256.291528 69.985702 256.938059 66.400396 259.791343 66.400396 C 265.342958 66.400396 268.110751 71.513866 275.703479 71.513866 C 278.775836 71.513866 280.827636 67.891157 281.682553 65.882103 C 282.86875 63.108967 283.472534 59.70533 281.805447 59.70533 C 280.485669 59.70533 279.630753 61.404477 276.68129 61.404477 C 272.807449 61.404477 270.205297 59.70533 266.871122 59.70533 C 256.382363 59.70533 251.386444 71.086408 251.386444 81.671344 Z M 284.151125 60.341174 C 285.305262 61.495311 285.636542 62.943327 285.636542 65.369153 L 285.636542 81.671344 L 285.679288 90.669342 L 285.679288 97.968193 C 285.679288 100.394019 285.348008 101.842034 284.188527 103.001515 L 296.344373 103.001515 C 298.438919 103.001515 299.373984 100.394019 299.373984 98.689529 C 299.373984 90.460956 287.859326 89.264073 287.859326 85.042922 C 287.859326 84.82385 288.035652 84.188005 288.628751 84.188005 C 290.723296 84.188005 302.708159 92.031866 302.708159 97.711718 C 302.708159 99.843667 301.98148 100.479511 301.98148 102.018361 C 301.98148 102.739697 302.665413 103.001515 303.221109 103.001515 L 312.438179 103.001515 C 314.516695 103.001515 315.248718 101.842034 315.248718 99.116987 C 315.248718 92.379176 306.207974 89.264073 299.92968 86.918395 C 294.98185 85.042922 289.606561 82.825482 289.606561 80.511864 C 289.606561 79.838617 289.905782 79.14934 291.065263 79.14934 C 293.491089 79.14934 295.628381 86.191716 303.728716 86.191716 C 312.25651 86.191716 315.676176 79.282921 315.676176 72.673347 C 315.676176 65.753865 311.706157 60.341174 301.345636 60.341174 Z M 298.866377 69.25368 C 304.749273 69.25368 313.458736 69.638393 313.458736 73.485518 C 313.458736 77.316613 306.501852 77.701325 300.613613 77.701325 C 294.730718 77.701325 287.81658 77.316613 287.81658 73.485518 C 287.81658 69.638393 294.511646 69.25368 298.866377 69.25368 Z M 330.348683 103.637359 C 342.242711 103.637359 347.243974 95.024074 347.243974 87.431345 C 347.243974 80.859174 342.381635 76.130416 335.216365 75.441139 C 328.767087 74.848041 320.704155 73.993124 320.704155 69.381918 C 320.704155 67.768262 321.98653 66.400396 323.557439 66.400396 C 329.280037 66.400396 333.201968 71.513866 339.474919 71.513866 C 344.679224 71.513866 348.563751 59.70533 345.576886 59.70533 C 344.251765 59.70533 343.402192 61.404477 340.452729 61.404477 C 336.578888 61.404477 333.976736 59.70533 330.642561 59.70533 C 323.477291 59.70533 317.466158 65.508076 317.466158 72.673347 C 317.466158 81.671344 324.71692 84.230751 333.164565 86.838247 C 337.380373 88.158025 341.179409 90.199138 341.179409 94.55387 C 341.179409 97.834612 338.235289 100.313871 334.954547 100.313871 C 328.296883 100.313871 329.071652 94.126412 329.66475 89.648786 C 329.883822 88.024444 328.767087 87.169527 327.484712 87.126781 C 325.267272 87.046633 317.166937 91.273127 317.166937 93.821847 C 317.166937 98.946004 323.226159 103.637359 330.348683 103.637359 Z M 330.348683 103.637359 " stroke="#000000" stroke-width="10.080008" stroke-opacity="1" stroke-miterlimit="4"/><g fill="#ffffff" fill-opacity="1"><g transform="translate(91.771877, 176.534002)"><g><path d="M 1.308594 -19.054688 C 2.871094 -19.054688 5.644531 -29.628906 7.640625 -29.628906 C 8.546875 -29.628906 8.609375 -28.597656 8.609375 -27.632812 L 8.609375 -3.679688 C 8.609375 -1.902344 8.359375 -0.84375 7.515625 0 L 17.964844 0 C 17.121094 -0.84375 16.871094 -1.902344 16.871094 -3.679688 L 16.871094 -27.632812 C 16.871094 -28.597656 16.933594 -29.628906 17.839844 -29.628906 C 19.835938 -29.628906 22.609375 -19.054688 24.171875 -19.054688 C 24.605469 -19.054688 24.855469 -19.398438 24.855469 -19.804688 L 24.855469 -31.1875 L 0.625 -31.1875 L 0.625 -19.804688 C 0.625 -19.398438 0.875 -19.054688 1.308594 -19.054688 Z M 1.308594 -19.054688 "/></g></g></g><g fill="#ffffff" fill-opacity="1"><g transform="translate(117.249578, 176.534002)"><g><path d="M 0.3125 0 L 10.757812 0 C 9.917969 -0.84375 9.667969 -1.902344 9.667969 -3.679688 L 9.667969 -27.507812 C 9.667969 -29.285156 9.917969 -30.34375 10.757812 -31.1875 L 0.3125 -31.1875 C 1.152344 -30.34375 1.402344 -29.285156 1.402344 -27.507812 L 1.402344 -3.679688 C 1.402344 -1.902344 1.152344 -0.84375 0.3125 0 Z M 0.3125 0 "/></g></g></g><g fill="#ffffff" fill-opacity="1"><g transform="translate(128.320061, 176.534002)"><g><path d="M 0.3125 -31.1875 C 1.152344 -30.34375 1.402344 -29.285156 1.402344 -27.507812 L 1.402344 -3.679688 C 1.402344 -1.902344 1.152344 -0.84375 0.3125 0 L 9.199219 0 C 10.726562 0 11.414062 -1.902344 11.414062 -3.148438 C 11.414062 -9.167969 3.117188 -10.820312 3.117188 -14.8125 C 3.117188 -15.3125 3.398438 -15.59375 3.835938 -15.59375 C 5.082031 -15.59375 7.859375 -11.976562 13.347656 -11.976562 C 20.550781 -11.976562 23.359375 -17.339844 23.359375 -22.175781 C 23.359375 -27.226562 20.457031 -31.1875 12.878906 -31.1875 Z M 11.070312 -24.667969 C 15.375 -24.667969 21.738281 -24.386719 21.738281 -21.582031 C 21.738281 -18.773438 16.652344 -18.492188 12.351562 -18.492188 C 8.046875 -18.492188 2.992188 -18.773438 2.992188 -21.582031 C 2.992188 -24.386719 7.890625 -24.667969 11.070312 -24.667969 Z M 11.070312 -24.667969 "/></g></g></g><g fill="#ffffff" fill-opacity="1"><g transform="translate(152.300916, 176.534002)"><g><path d="M 0.78125 -15.59375 C 0.78125 -5.957031 5.675781 0.46875 13.066406 0.46875 C 20.394531 0.46875 25.324219 -5.957031 25.324219 -15.59375 C 25.324219 -25.230469 20.394531 -31.65625 13.066406 -31.65625 C 5.675781 -31.65625 0.78125 -25.230469 0.78125 -15.59375 Z M 10.542969 -29.535156 C 17.121094 -29.535156 21.925781 -1.652344 14.96875 -1.652344 C 9.417969 -1.652344 4.710938 -29.535156 10.542969 -29.535156 Z M 10.542969 -29.535156 "/></g></g></g><g fill="#ffffff" fill-opacity="1"><g transform="translate(178.402315, 176.534002)"><g><path d="M 0.3125 -31.1875 C 1.152344 -30.34375 1.402344 -29.285156 1.402344 -27.507812 L 1.402344 -3.679688 C 1.402344 -1.902344 1.152344 -0.84375 0.3125 0 L 13.566406 0 C 19.679688 0 23.296875 -2.402344 23.296875 -11.664062 C 23.296875 -19.523438 19.398438 -31.1875 9.886719 -31.1875 Z M 12.007812 -29.410156 C 14.875 -29.410156 15.125 -21.550781 15.125 -15.53125 C 15.125 -6.363281 14.191406 -1.589844 11.820312 -1.589844 C 10.074219 -1.589844 9.511719 -3.867188 9.511719 -9.355469 C 9.511719 -9.855469 9.511719 -15.09375 9.511719 -15.59375 C 9.511719 -16.09375 9.511719 -21.332031 9.511719 -21.832031 C 9.511719 -27.320312 10.074219 -29.410156 12.007812 -29.410156 Z M 12.007812 -29.410156 "/></g></g></g><g fill="#ffffff" fill-opacity="1"><g transform="translate(202.476718, 176.534002)"><g><path d="M 9.949219 0.46875 C 18.648438 0.46875 22.300781 -5.832031 22.300781 -11.382812 C 22.300781 -16.1875 18.742188 -19.648438 13.503906 -20.148438 C 8.792969 -20.582031 2.902344 -21.207031 2.902344 -24.574219 C 2.902344 -25.761719 3.835938 -26.757812 4.988281 -26.757812 C 9.167969 -26.757812 12.039062 -23.015625 16.621094 -23.015625 C 20.425781 -23.015625 23.265625 -31.65625 21.082031 -31.65625 C 20.117188 -31.65625 19.492188 -30.40625 17.339844 -30.40625 C 14.503906 -30.40625 12.601562 -31.65625 10.167969 -31.65625 C 4.925781 -31.65625 0.53125 -27.414062 0.53125 -22.175781 C 0.53125 -15.59375 5.832031 -13.722656 12.007812 -11.820312 C 15.09375 -10.851562 17.871094 -9.355469 17.871094 -6.175781 C 17.871094 -3.773438 15.71875 -1.964844 13.316406 -1.964844 C 8.453125 -1.964844 9.011719 -6.488281 9.449219 -9.761719 C 9.605469 -10.945312 8.792969 -11.570312 7.859375 -11.601562 C 6.238281 -11.664062 0.3125 -8.578125 0.3125 -6.707031 C 0.3125 -2.960938 4.742188 0.46875 9.949219 0.46875 Z M 9.949219 0.46875 "/></g></g></g><g fill="#ffffff" fill-opacity="1"><g transform="translate(225.553223, 176.534002)"><g/></g></g><g fill="#ffffff" fill-opacity="1"><g transform="translate(236.467779, 176.534002)"><g><path d="M 0.3125 -31.1875 C 1.152344 -30.34375 1.402344 -29.285156 1.402344 -27.507812 L 1.402344 -3.679688 C 1.402344 -1.902344 1.152344 -0.84375 0.3125 0 L 13.566406 0 C 19.679688 0 23.296875 -2.402344 23.296875 -11.664062 C 23.296875 -19.523438 19.398438 -31.1875 9.886719 -31.1875 Z M 12.007812 -29.410156 C 14.875 -29.410156 15.125 -21.550781 15.125 -15.53125 C 15.125 -6.363281 14.191406 -1.589844 11.820312 -1.589844 C 10.074219 -1.589844 9.511719 -3.867188 9.511719 -9.355469 C 9.511719 -9.855469 9.511719 -15.09375 9.511719 -15.59375 C 9.511719 -16.09375 9.511719 -21.332031 9.511719 -21.832031 C 9.511719 -27.320312 10.074219 -29.410156 12.007812 -29.410156 Z M 12.007812 -29.410156 "/></g></g></g><g fill="#ffffff" fill-opacity="1"><g transform="translate(260.542182, 176.534002)"><g><path d="M 0.78125 -15.59375 C 0.78125 -4.835938 6.425781 0.46875 13.410156 0.46875 C 20.054688 0.46875 23.796875 -5.519531 23.796875 -9.761719 C 23.796875 -11.195312 23.390625 -11.445312 23.015625 -11.445312 C 21.488281 -11.445312 21.332031 -6.828125 15.875 -6.828125 C 11.539062 -6.828125 7.265625 -10.851562 5.394531 -16.589844 C 5.207031 -17.214844 5.050781 -18.339844 6.050781 -18.339844 C 8.640625 -18.339844 10.757812 -12.691406 15.375 -12.691406 C 19.210938 -12.691406 20.707031 -15.84375 20.707031 -17.933594 C 20.707031 -18.929688 20.425781 -19.710938 19.929688 -19.710938 C 19.398438 -19.710938 19.085938 -18.492188 17.652344 -18.492188 C 15.21875 -18.492188 12.476562 -21.050781 9.386719 -21.050781 C 6.613281 -21.050781 5.894531 -19.429688 4.957031 -19.429688 C 4.117188 -19.429688 4.367188 -22.390625 4.367188 -22.984375 C 4.367188 -24.140625 4.835938 -26.757812 6.921875 -26.757812 C 10.976562 -26.757812 13.003906 -23.015625 18.554688 -23.015625 C 20.800781 -23.015625 22.300781 -25.667969 22.921875 -27.132812 C 23.796875 -29.160156 24.234375 -31.65625 23.015625 -31.65625 C 22.050781 -31.65625 21.425781 -30.40625 19.273438 -30.40625 C 16.4375 -30.40625 14.535156 -31.65625 12.101562 -31.65625 C 4.429688 -31.65625 0.78125 -23.328125 0.78125 -15.59375 Z M 0.78125 -15.59375 "/></g></g></g><g fill="#ffffff" fill-opacity="1"><g transform="translate(61.055707, 219.666861)"><g><path d="M 0.3125 0 L 10.757812 0 C 9.917969 -0.84375 9.667969 -1.902344 9.667969 -3.679688 L 9.667969 -27.507812 C 9.667969 -29.285156 9.917969 -30.34375 10.757812 -31.1875 L 0.3125 -31.1875 C 1.152344 -30.34375 1.402344 -29.285156 1.402344 -27.507812 L 1.402344 -3.679688 C 1.402344 -1.902344 1.152344 -0.84375 0.3125 0 Z M 0.3125 0 "/></g></g></g><g fill="#ffffff" fill-opacity="1"><g transform="translate(72.126189, 219.666861)"><g><path d="M 0.3125 0 L 6.828125 0 C 8.671875 0 10.292969 -0.84375 10.292969 -2.746094 C 10.292969 -7.234375 3.210938 -11.851562 3.210938 -21.832031 C 3.210938 -23.265625 3.335938 -25.230469 4.367188 -25.230469 C 5.488281 -25.230469 6.613281 -21.519531 7.765625 -18.089844 C 8.453125 -16.03125 10.386719 -10.605469 11.195312 -8.140625 C 12.570312 -3.929688 13.785156 0 17.402344 0 L 25.574219 0 C 24.730469 -0.84375 24.480469 -1.902344 24.480469 -3.679688 L 24.480469 -27.507812 C 24.480469 -29.285156 24.730469 -30.34375 25.574219 -31.1875 L 19.054688 -31.1875 C 17.214844 -31.1875 15.59375 -30.34375 15.59375 -28.441406 C 15.59375 -23.953125 22.671875 -19.335938 22.671875 -9.355469 C 22.671875 -7.921875 22.546875 -5.957031 21.519531 -5.957031 C 20.394531 -5.957031 19.273438 -9.667969 18.121094 -13.097656 L 15.1875 -21.832031 C 12.382812 -30.1875 11.789062 -31.1875 9.605469 -31.1875 L 0.3125 -31.1875 C 1.152344 -30.34375 1.402344 -29.285156 1.402344 -27.507812 L 1.402344 -3.679688 C 1.402344 -1.902344 1.152344 -0.84375 0.3125 0 Z M 0.3125 0 "/></g></g></g><g fill="#ffffff" fill-opacity="1"><g transform="translate(98.009292, 219.666861)"><g><path d="M 0.3125 -31.1875 C 1.371094 -30.34375 1.621094 -29.285156 1.621094 -27.507812 L 1.621094 -3.679688 C 1.621094 -1.902344 1.371094 -0.84375 0.53125 0 L 9.417969 0 C 10.945312 0 11.632812 -1.902344 11.632812 -3.148438 C 11.632812 -9.167969 3.335938 -9.230469 3.335938 -17.558594 C 3.335938 -18.152344 3.742188 -18.339844 4.023438 -18.339844 C 6.613281 -18.339844 8.734375 -12.691406 13.347656 -12.691406 C 17.183594 -12.691406 18.679688 -15.84375 18.679688 -17.933594 C 18.679688 -18.929688 18.402344 -19.710938 17.902344 -19.710938 C 17.371094 -19.710938 17.058594 -18.492188 15.625 -18.492188 C 13.191406 -18.492188 10.449219 -21.050781 7.359375 -21.050781 C 5.144531 -21.050781 4.492188 -19.898438 3.742188 -19.898438 C 3.398438 -19.898438 3.335938 -20.179688 3.335938 -20.394531 L 3.335938 -22.328125 C 3.335938 -23.515625 4.179688 -24.886719 5.675781 -24.886719 L 16.46875 -24.886719 C 20.117188 -24.886719 20.394531 -22.484375 21.394531 -22.484375 C 21.988281 -22.484375 22.113281 -22.953125 22.113281 -23.734375 L 22.113281 -31.1875 Z M 0.3125 -31.1875 "/></g></g></g><g fill="#ffffff" fill-opacity="1"><g transform="translate(120.742765, 219.666861)"><g><path d="M 16.933594 0 C 19.429688 0 22.546875 0.28125 22.546875 -2.558594 C 22.546875 -7.296875 15.5 -7.234375 15.5 -10.011719 C 15.5 -13.347656 22.328125 -12.007812 22.328125 -15.59375 C 22.328125 -17.433594 17.214844 -19.023438 15.21875 -19.023438 C 12.847656 -19.023438 10.945312 -16.839844 10.945312 -14.503906 C 10.945312 -9.136719 16.21875 -8.640625 16.21875 -4.492188 C 16.21875 -2.527344 14.097656 -1.558594 12.132812 -1.558594 C 6.796875 -1.558594 4.085938 -8.109375 4.085938 -11.507812 C 4.085938 -18.742188 13.128906 -23.828125 13.128906 -28.410156 C 13.128906 -29.660156 12.414062 -31.1875 9.886719 -31.1875 L 0.3125 -31.1875 C 1.152344 -30.34375 1.402344 -29.285156 1.402344 -27.507812 L 1.402344 -3.679688 C 1.402344 -1.902344 1.152344 -0.84375 0.3125 0 Z M 16.933594 0 "/></g></g></g><g fill="#ffffff" fill-opacity="1"><g transform="translate(143.600975, 219.666861)"><g><path d="M 1.621094 -27.507812 L 1.621094 -11.507812 C 1.621094 -1.902344 8.265625 0.46875 12.816406 0.46875 C 17.371094 0.46875 24.109375 -1.902344 24.109375 -11.507812 L 24.109375 -27.507812 C 24.109375 -29.285156 24.355469 -30.34375 25.417969 -31.1875 L 14.6875 -31.1875 C 15.75 -30.34375 16 -29.285156 16 -27.507812 L 16 -12.195312 C 16 -8.390625 13.441406 -6.363281 10.355469 -6.363281 C 7.171875 -6.363281 3.148438 -7.828125 3.148438 -11.789062 C 3.148438 -17.902344 11.601562 -21.550781 11.601562 -28.472656 C 11.601562 -29.660156 10.882812 -31.1875 9.605469 -31.1875 L 0.3125 -31.1875 C 1.371094 -30.34375 1.621094 -29.285156 1.621094 -27.507812 Z M 1.621094 -27.507812 "/></g></g></g><g fill="#ffffff" fill-opacity="1"><g transform="translate(169.32815, 219.666861)"><g><path d="M 0.78125 -15.59375 C 0.78125 -4.835938 6.425781 0.46875 13.410156 0.46875 C 20.054688 0.46875 23.796875 -5.519531 23.796875 -9.761719 C 23.796875 -11.195312 23.390625 -11.445312 23.015625 -11.445312 C 21.488281 -11.445312 21.332031 -6.828125 15.875 -6.828125 C 11.539062 -6.828125 7.265625 -10.851562 5.394531 -16.589844 C 5.207031 -17.214844 5.050781 -18.339844 6.050781 -18.339844 C 8.640625 -18.339844 10.757812 -12.691406 15.375 -12.691406 C 19.210938 -12.691406 20.707031 -15.84375 20.707031 -17.933594 C 20.707031 -18.929688 20.425781 -19.710938 19.929688 -19.710938 C 19.398438 -19.710938 19.085938 -18.492188 17.652344 -18.492188 C 15.21875 -18.492188 12.476562 -21.050781 9.386719 -21.050781 C 6.613281 -21.050781 5.894531 -19.429688 4.957031 -19.429688 C 4.117188 -19.429688 4.367188 -22.390625 4.367188 -22.984375 C 4.367188 -24.140625 4.835938 -26.757812 6.921875 -26.757812 C 10.976562 -26.757812 13.003906 -23.015625 18.554688 -23.015625 C 20.800781 -23.015625 22.300781 -25.667969 22.921875 -27.132812 C 23.796875 -29.160156 24.234375 -31.65625 23.015625 -31.65625 C 22.050781 -31.65625 21.425781 -30.40625 19.273438 -30.40625 C 16.4375 -30.40625 14.535156 -31.65625 12.101562 -31.65625 C 4.429688 -31.65625 0.78125 -23.328125 0.78125 -15.59375 Z M 0.78125 -15.59375 "/></g></g></g><g fill="#ffffff" fill-opacity="1"><g transform="translate(193.745586, 219.666861)"><g><path d="M 0.3125 0 L 6.828125 0 C 8.671875 0 10.292969 -0.84375 10.292969 -2.746094 C 10.292969 -7.234375 3.210938 -11.851562 3.210938 -21.832031 C 3.210938 -23.265625 3.335938 -25.230469 4.367188 -25.230469 C 5.488281 -25.230469 6.613281 -21.519531 7.765625 -18.089844 C 8.453125 -16.03125 10.386719 -10.605469 11.195312 -8.140625 C 12.570312 -3.929688 13.785156 0 17.402344 0 L 25.574219 0 C 24.730469 -0.84375 24.480469 -1.902344 24.480469 -3.679688 L 24.480469 -27.507812 C 24.480469 -29.285156 24.730469 -30.34375 25.574219 -31.1875 L 19.054688 -31.1875 C 17.214844 -31.1875 15.59375 -30.34375 15.59375 -28.441406 C 15.59375 -23.953125 22.671875 -19.335938 22.671875 -9.355469 C 22.671875 -7.921875 22.546875 -5.957031 21.519531 -5.957031 C 20.394531 -5.957031 19.273438 -9.667969 18.121094 -13.097656 L 15.1875 -21.832031 C 12.382812 -30.1875 11.789062 -31.1875 9.605469 -31.1875 L 0.3125 -31.1875 C 1.152344 -30.34375 1.402344 -29.285156 1.402344 -27.507812 L 1.402344 -3.679688 C 1.402344 -1.902344 1.152344 -0.84375 0.3125 0 Z M 0.3125 0 "/></g></g></g><g fill="#ffffff" fill-opacity="1"><g transform="translate(219.628689, 219.666861)"><g><path d="M 13.410156 0.46875 C 20.054688 0.46875 23.796875 -5.738281 23.796875 -9.761719 C 23.796875 -11.195312 23.390625 -11.445312 23.015625 -11.445312 C 21.488281 -11.445312 21.332031 -6.828125 15.875 -6.828125 C 8.421875 -6.828125 4.367188 -16.558594 4.367188 -22.984375 C 4.367188 -24.140625 4.835938 -26.757812 6.921875 -26.757812 C 10.511719 -26.757812 12.507812 -23.828125 16.777344 -23.140625 C 17.339844 -23.046875 17.652344 -22.828125 17.652344 -22.390625 C 17.652344 -21.113281 11.195312 -19.835938 11.195312 -15.15625 C 11.195312 -12.660156 13.316406 -10.667969 15.84375 -10.667969 C 18.460938 -10.667969 20.800781 -12.816406 20.800781 -15.15625 C 20.800781 -15.78125 20.613281 -16.871094 20.117188 -16.871094 C 19.773438 -16.871094 19.835938 -16.558594 19.179688 -16.558594 C 18.089844 -16.558594 17.371094 -17.464844 17.371094 -18.492188 C 17.339844 -20.769531 20.210938 -23.015625 21.550781 -24.761719 C 22.175781 -25.574219 22.640625 -26.476562 22.921875 -27.132812 C 23.796875 -29.160156 24.234375 -31.65625 23.015625 -31.65625 C 22.050781 -31.65625 21.425781 -30.40625 19.273438 -30.40625 C 16.4375 -30.40625 14.535156 -31.65625 12.101562 -31.65625 C 4.429688 -31.65625 0.78125 -23.328125 0.78125 -15.59375 C 0.78125 -4.835938 6.425781 0.46875 13.410156 0.46875 Z M 13.410156 0.46875 "/></g></g></g><g fill="#ffffff" fill-opacity="1"><g transform="translate(244.046124, 219.666861)"><g><path d="M 0.78125 -15.59375 C 0.78125 -4.835938 6.425781 0.46875 13.410156 0.46875 C 20.054688 0.46875 23.796875 -5.519531 23.796875 -9.761719 C 23.796875 -11.195312 23.390625 -11.445312 23.015625 -11.445312 C 21.488281 -11.445312 21.332031 -6.828125 15.875 -6.828125 C 11.539062 -6.828125 7.265625 -10.851562 5.394531 -16.589844 C 5.207031 -17.214844 5.050781 -18.339844 6.050781 -18.339844 C 8.640625 -18.339844 10.757812 -12.691406 15.375 -12.691406 C 19.210938 -12.691406 20.707031 -15.84375 20.707031 -17.933594 C 20.707031 -18.929688 20.425781 -19.710938 19.929688 -19.710938 C 19.398438 -19.710938 19.085938 -18.492188 17.652344 -18.492188 C 15.21875 -18.492188 12.476562 -21.050781 9.386719 -21.050781 C 6.613281 -21.050781 5.894531 -19.429688 4.957031 -19.429688 C 4.117188 -19.429688 4.367188 -22.390625 4.367188 -22.984375 C 4.367188 -24.140625 4.835938 -26.757812 6.921875 -26.757812 C 10.976562 -26.757812 13.003906 -23.015625 18.554688 -23.015625 C 20.800781 -23.015625 22.300781 -25.667969 22.921875 -27.132812 C 23.796875 -29.160156 24.234375 -31.65625 23.015625 -31.65625 C 22.050781 -31.65625 21.425781 -30.40625 19.273438 -30.40625 C 16.4375 -30.40625 14.535156 -31.65625 12.101562 -31.65625 C 4.429688 -31.65625 0.78125 -23.328125 0.78125 -15.59375 Z M 0.78125 -15.59375 "/></g></g></g><g fill="#ffffff" fill-opacity="1"><g transform="translate(268.463571, 219.666861)"><g><path d="M 0.3125 -31.1875 C 1.152344 -30.34375 1.402344 -29.285156 1.402344 -27.507812 L 1.402344 -15.59375 L 1.433594 -9.011719 L 1.433594 -3.679688 C 1.433594 -1.902344 1.183594 -0.84375 0.34375 0 L 9.230469 0 C 10.757812 0 11.445312 -1.902344 11.445312 -3.148438 C 11.445312 -9.167969 3.023438 -10.042969 3.023438 -13.128906 C 3.023438 -13.285156 3.148438 -13.753906 3.585938 -13.753906 C 5.113281 -13.753906 13.878906 -8.015625 13.878906 -3.867188 C 13.878906 -2.308594 13.347656 -1.839844 13.347656 -0.71875 C 13.347656 -0.1875 13.847656 0 14.253906 0 L 20.988281 0 C 22.515625 0 23.046875 -0.84375 23.046875 -2.839844 C 23.046875 -7.765625 16.4375 -10.042969 11.851562 -11.757812 C 8.234375 -13.128906 4.304688 -14.75 4.304688 -16.4375 C 4.304688 -16.933594 4.523438 -17.433594 5.363281 -17.433594 C 7.140625 -17.433594 8.703125 -12.289062 14.625 -12.289062 C 20.863281 -12.289062 23.359375 -17.339844 23.359375 -22.175781 C 23.359375 -27.226562 20.457031 -31.1875 12.878906 -31.1875 Z M 11.070312 -24.667969 C 15.375 -24.667969 21.738281 -24.386719 21.738281 -21.582031 C 21.738281 -18.773438 16.652344 -18.492188 12.351562 -18.492188 C 8.046875 -18.492188 2.992188 -18.773438 2.992188 -21.582031 C 2.992188 -24.386719 7.890625 -24.667969 11.070312 -24.667969 Z M 11.070312 -24.667969 "/></g></g></g><g fill="#ffffff" fill-opacity="1"><g transform="translate(292.600331, 219.666861)"><g><path d="M 9.949219 0.46875 C 18.648438 0.46875 22.300781 -5.832031 22.300781 -11.382812 C 22.300781 -16.1875 18.742188 -19.648438 13.503906 -20.148438 C 8.792969 -20.582031 2.902344 -21.207031 2.902344 -24.574219 C 2.902344 -25.761719 3.835938 -26.757812 4.988281 -26.757812 C 9.167969 -26.757812 12.039062 -23.015625 16.621094 -23.015625 C 20.425781 -23.015625 23.265625 -31.65625 21.082031 -31.65625 C 20.117188 -31.65625 19.492188 -30.40625 17.339844 -30.40625 C 14.503906 -30.40625 12.601562 -31.65625 10.167969 -31.65625 C 4.925781 -31.65625 0.53125 -27.414062 0.53125 -22.175781 C 0.53125 -15.59375 5.832031 -13.722656 12.007812 -11.820312 C 15.09375 -10.851562 17.871094 -9.355469 17.871094 -6.175781 C 17.871094 -3.773438 15.71875 -1.964844 13.316406 -1.964844 C 8.453125 -1.964844 9.011719 -6.488281 9.449219 -9.761719 C 9.605469 -10.945312 8.792969 -11.570312 7.859375 -11.601562 C 6.238281 -11.664062 0.3125 -8.578125 0.3125 -6.707031 C 0.3125 -2.960938 4.742188 0.46875 9.949219 0.46875 Z M 9.949219 0.46875 "/></g></g></g></svg>